# xmcd CD database file
#
# Track frame offsets:
#	150
#	17775
#	34525
#	50840
#	65176
#	83226
#	100044
#	115370
#	133818
#	152437
#	169737
#	183667
#	196591
#	213409
#	231264
#	246641
#	260231
#	276053
#
# Disc length: 3902 seconds
#
# Revision: 3
# Processed by: cddbd v1.5.2PL0 Copyright (c) Steve Scherf et al.
# Submitted via: CDex 1.51
#
DISCID=0c0f3c12
DTITLE=Various Artist - VARIOUS RPM T842
DYEAR=2006
DGENRE=Top 40
TTITLE0=Dixie Chicks - Not Ready To Make Nice
TTITLE1=Rin w Lisa Loeb - Anti Hero
TTITLE2=Edwin McCain - Gramercy Park Hotel (Edit)
TTITLE3=Frankie Jordan - Once Again
TTITLE4=Jamie Foxx f Twista - DJ Play A Love Song  **WARNING CONTENT**(Radio Edit)
TTITLE5=Mariah Carey f Snoop Dogg - Say Somethin'  **WARNING CONTENT**(Radio Edit)
TTITLE6=Bodyrockers - I Like The Way
TTITLE7=Mary J. Blige f Brook Lyn - Enough Cryin'  **WARNING CONTENT**(Radio Edit)
TTITLE8=INXS - Afterglow
TTITLE9=Fefe Dobson - This Is My Life
TTITLE10=Rock Kills Kid - Paralyzed
TTITLE11=Jonas Brothers - Mandy
TTITLE12=Young Leeky - Jiggle It **WARNING CONTENT** (Radio Edit)
TTITLE13=Jace Everett - Nowhere In The Neighborhood
TTITLE14=Julie Roberts - Men and Mascara
TTITLE15=Emerson Drive - A Good Man
TTITLE16=Lost Trailers - Call Me Crazy
TTITLE17=Tobymac - Diverse City (Radio Edit)
EXTD=YEAR: 2006
EXTT0=
EXTT1=
EXTT2=
EXTT3=
EXTT4=
EXTT5=
EXTT6=
EXTT7=
EXTT8=
EXTT9=
EXTT10=
EXTT11=
EXTT12=
EXTT13=
EXTT14=
EXTT15=
EXTT16=
EXTT17=
PLAYORDER=
